<?xml version="1.0" standalone="no"?><!DOCTYPE svg PUBLIC "-//W3C//DTD SVG 1.1//EN" "http://www.w3.org/Graphics/SVG/1.1/DTD/svg11.dtd"><svg t="1652023592435" class="icon" viewBox="0 0 1136 1024" version="1.1" xmlns="http://www.w3.org/2000/svg" p-id="9042" xmlns:xlink="http://www.w3.org/1999/xlink" width="221.875" height="200"><defs><style type="text/css">@font-face { font-family: feedback-iconfont; src: url("//at.alicdn.com/t/font_1031158_u69w8yhxdu.woff2?t=1630033759944") format("woff2"), url("//at.alicdn.com/t/font_1031158_u69w8yhxdu.woff?t=1630033759944") format("woff"), url("//at.alicdn.com/t/font_1031158_u69w8yhxdu.ttf?t=1630033759944") format("truetype"); }
</style></defs><path d="M97.163636 592.290327a75.636364 75.636364 0 0 1-75.636363-75.636363V215.853964a104.145455 104.145455 0 0 1 103.563636-103.563637h290.909091a75.636364 75.636364 0 0 1 0 150.690909H172.8v253.672728a75.636364 75.636364 0 0 1-75.636364 75.636363z" fill="#FF2828" p-id="9043"></path><path d="M813.381818 530.6176a170.472727 170.472727 0 1 0 170.472727 170.472727 170.472727 170.472727 0 0 0-170.472727-170.472727z m0 493.381818a322.327273 322.327273 0 1 1 322.909091-322.327273 322.327273 322.327273 0 0 1-322.909091 322.327273z" fill="#FF8C14" p-id="9044"></path><path d="M813.381818 151.272145a113.454545 113.454545 0 1 0 112.872727 113.454546 113.454545 113.454545 0 0 0-112.872727-113.454546z m0 377.018182a264.145455 264.145455 0 1 1 264.727273-263.563636 264.145455 264.145455 0 0 1-264.727273 263.563636z" fill="#50C414" p-id="9045"></path><path d="M812.8 378.763055a321.745455 321.745455 0 0 0-194.327273 65.163636 266.472727 266.472727 0 0 0 389.236364 0 322.909091 322.909091 0 0 0-194.909091-65.163636z" fill="#28A032" p-id="9046"></path><path d="M244.945455 944.290327a283.927273 283.927273 0 0 1-232.727273-120.436363 75.636364 75.636364 0 0 1 123.345454-86.690909 132.072727 132.072727 0 1 0 109.963637-207.709091 130.327273 130.327273 0 0 0-98.327273 41.309091A75.636364 75.636364 0 1 1 39.563636 464.872145a282.763636 282.763636 0 1 1 204.8 477.09091z" fill="#0091D7" p-id="9047"></path><path d="M41.890909 468.363055a76.218182 76.218182 0 0 0-20.363636 54.690909v16.872727a22.109091 22.109091 0 0 1 0 4.072727v15.127273H139.054545l8.145455 22.109091 3.490909-3.490909a75.054545 75.054545 0 0 0 21.527273-54.690909V389.8176A285.090909 285.090909 0 0 0 41.890909 468.363055z m465.454546 315.927272a283.927273 283.927273 0 0 0 13.963636-206.545454 321.745455 321.745455 0 0 0-15.127273 206.545454z" fill="#006EC8" p-id="9048"></path></svg>