<?xml version="1.0" standalone="no"?><!DOCTYPE svg PUBLIC "-//W3C//DTD SVG 1.1//EN" "http://www.w3.org/Graphics/SVG/1.1/DTD/svg11.dtd"><svg t="1652023604254" class="icon" viewBox="0 0 1024 1024" version="1.1" xmlns="http://www.w3.org/2000/svg" p-id="9564" xmlns:xlink="http://www.w3.org/1999/xlink" width="200" height="200"><defs><style type="text/css">@font-face { font-family: feedback-iconfont; src: url("//at.alicdn.com/t/font_1031158_u69w8yhxdu.woff2?t=1630033759944") format("woff2"), url("//at.alicdn.com/t/font_1031158_u69w8yhxdu.woff?t=1630033759944") format("woff"), url("//at.alicdn.com/t/font_1031158_u69w8yhxdu.ttf?t=1630033759944") format("truetype"); }
</style></defs><path d="M1018.88 409.6c-7.68-17.92-17.92-23.04-35.84-23.04h-71.68c-10.24 0-10.24 0-12.8-12.8 0-7.68 0-7.68-7.68-7.68h-61.44c-2.56 2.56-2.56 5.12-2.56 7.68V381.44c-2.56 2.56-7.68 2.56-10.24 2.56-30.72 0-61.44 2.56-92.16 2.56h-7.68c-2.56 0-5.12 2.56-5.12 5.12v35.84c0 2.56 2.56 5.12 5.12 5.12h7.68c5.12 0 5.12-2.56 5.12-5.12v-10.24c0-5.12 2.56-5.12 7.68-5.12h212.48c10.24 2.56 12.8 7.68 10.24 17.92 0 2.56 2.56 2.56 2.56 2.56h58.88c0-5.12 0-10.24-2.56-15.36v-7.68z" fill="#38B129" p-id="9565"></path><path d="M1013.76 432.64h-48.64c-2.56 0-2.56-2.56-2.56-2.56 2.56-10.24-2.56-17.92-12.8-17.92h-212.48c-5.12 0-5.12 2.56-7.68 5.12v10.24c0 2.56-2.56 5.12-5.12 5.12h-7.68c-2.56 0-5.12-2.56-5.12-5.12v-35.84c0-2.56 2.56-5.12 5.12-5.12h110.08v-2.56h-115.2c-2.56 0-2.56 0-2.56 2.56v40.96c0 5.12 0 5.12 5.12 5.12 17.92 0 15.36 0 15.36-20.48h217.6c5.12 0 10.24 5.12 10.24 10.24 0 10.24-2.56 10.24 5.12 10.24h51.2zM977.92 386.56h-71.68c-5.12 0-5.12 0-5.12-5.12v-10.24c0-2.56 0-5.12-5.12-5.12h-69.12V376.32c0-2.56 0-5.12 2.56-7.68h61.44c7.68 0 7.68 0 7.68 7.68 0 10.24 0 12.8 12.8 12.8h71.68c17.92 0 28.16 7.68 35.84 23.04 0 2.56 0 5.12 2.56 5.12-7.68-25.6-17.92-30.72-43.52-30.72zM317.44 476.16s0-2.56 0 0c0-10.24 0-10.24-7.68-10.24-12.8 0-12.8 0-12.8-12.8 0-5.12-2.56-5.12-5.12-5.12h-46.08c-12.8 0-10.24 0-10.24 15.36h-138.24c-2.56 0-5.12-2.56-5.12-5.12v-15.36c0-2.56 0-5.12-5.12-5.12h-51.2c-2.56 0-5.12 2.56-5.12 5.12v15.36c0 5.12 0 5.12-5.12 5.12h-15.36c-2.56 0-5.12 0-5.12 5.12v17.92c0 2.56 0 5.12 5.12 5.12h17.92c2.56 0 5.12 0 5.12 5.12v20.48c0 20.48 7.68 33.28 25.6 40.96l53.76 30.72c2.56 0 5.12 2.56 5.12 5.12s-2.56 2.56-5.12 2.56c-7.68 5.12-17.92 10.24-25.6 12.8-5.12 2.56-12.8 5.12-20.48 5.12-2.56 0-2.56 0-5.12 2.56-17.92 2.56-33.28 5.12-51.2 5.12-5.12 0-5.12 0-5.12 5.12v20.48h74.24c7.68 0 17.92-2.56 25.6-2.56 17.92-2.56 33.28-10.24 48.64-20.48 7.68-5.12 12.8-5.12 20.48-2.56 17.92 10.24 35.84 20.48 56.32 23.04 17.92 2.56 38.4 2.56 56.32 2.56 5.12 0 12.8 2.56 17.92 0s5.12-10.24 7.68-17.92c2.56-10.24 2.56-10.24-7.68-10.24-15.36 0-30.72 0-46.08-5.12-12.8-5.12-25.6-12.8-38.4-17.92-2.56 0-5.12-2.56-5.12-2.56 0-2.56 2.56-2.56 5.12-2.56 17.92-10.24 38.4-20.48 56.32-33.28 15.36-7.68 23.04-20.48 23.04-38.4v-20.48c0-2.56 0-5.12 5.12-5.12s12.8 2.56 15.36 0c-2.56-5.12-2.56-12.8-2.56-17.92z m-112.64 69.12c-12.8 5.12-25.6 12.8-38.4 20.48-2.56 2.56-5.12 2.56-10.24 0-15.36-10.24-33.28-17.92-48.64-28.16-10.24-5.12-15.36-15.36-15.36-28.16 0-5.12-2.56-15.36 2.56-17.92 2.56-2.56 10.24 0 17.92 0h115.2c5.12 0 5.12 2.56 5.12 5.12 2.56 25.6-7.68 38.4-28.16 48.64z" fill="#38B129" p-id="9566"></path><path d="M668.16 407.04c0-7.68-2.56-17.92-7.68-23.04-7.68-10.24-17.92-12.8-28.16-12.8h-258.56c-5.12 0-7.68 0-7.68 7.68V606.72c0 10.24-2.56 12.8-12.8 15.36-2.56 0-5.12 2.56-5.12 5.12-2.56 7.68-5.12 12.8-5.12 20.48-2.56 5.12 0 5.12 2.56 5.12h38.4c12.8 0 23.04-7.68 28.16-17.92 7.68-12.8 2.56-30.72 5.12-46.08v-104.96c-2.56-7.68 0-10.24 7.68-10.24h235.52c2.56 0 7.68 0 7.68-5.12v-61.44z m-58.88 38.4h-184.32c-5.12 0-7.68 0-5.12-5.12v-30.72c0-2.56 0-5.12 5.12-5.12h176.64c10.24 0 12.8 2.56 12.8 12.8v23.04c0 2.56 0 5.12-5.12 5.12z" fill="#39B129" p-id="9567"></path><path d="M657.92 506.88h-64c-15.36 0-15.36 0-15.36-15.36 0-5.12-2.56-5.12-5.12-5.12h-38.4c-5.12 0-10.24 2.56-10.24 7.68-2.56 10.24 2.56 15.36-7.68 15.36h-74.24c-5.12 0-5.12 0-5.12 5.12v17.92c0 5.12 0 5.12 5.12 5.12h58.88c5.12 0 15.36-2.56 17.92 0 5.12 5.12 0 12.8 2.56 17.92 0 5.12-2.56 7.68-10.24 7.68h-61.44c-10.24 2.56-17.92-2.56-17.92 7.68v81.92c0 2.56 0 2.56 2.56 2.56h215.04c2.56 0 5.12 0 5.12-5.12v-53.76c0-17.92-12.8-30.72-33.28-33.28h-43.52c-12.8 0-10.24 0-10.24-10.24v-10.24c0-5.12 2.56-7.68 7.68-7.68h74.24c5.12 0 5.12 0 5.12-5.12v-15.36c10.24-7.68 7.68-10.24 2.56-7.68z m-58.88 81.92c7.68 0 10.24 2.56 10.24 12.8v15.36c0 5.12 0 7.68-5.12 7.68h-104.96c-7.68 0-7.68 0-7.68-10.24v-17.92c0-2.56 0-5.12 5.12-5.12 35.84-2.56 69.12-2.56 102.4-2.56zM814.08 527.36c-7.68 2.56-35.84 7.68-38.4 7.68h-51.2c-5.12 0-5.12 0-5.12 5.12v15.36c0 5.12 2.56 5.12 5.12 5.12h53.76c28.16 0 53.76-5.12 76.8-17.92 5.12-2.56 7.68-2.56 10.24 0 17.92 5.12 35.84 12.8 53.76 15.36 28.16 2.56 56.32 0 81.92 2.56 2.56 0 5.12-2.56 5.12-5.12v-17.92c0-5.12-2.56-5.12-5.12-5.12h-48.64c-7.68 0-15.36 0-23.04-2.56-5.12 0-15.36-2.56-20.48-5.12 0-2.56 2.56-2.56 5.12-2.56 7.68-5.12 17.92-7.68 25.6-12.8 15.36-7.68 33.28-15.36 48.64-23.04 7.68-5.12 15.36-10.24 12.8-20.48 0-7.68-5.12-12.8-12.8-15.36-79.36-2.56-158.72 0-238.08 0h-15.36c-5.12 5.12-12.8 10.24-17.92 15.36l-2.56 2.56v35.84l30.72-23.04c2.56-2.56 5.12-5.12 10.24-5.12H926.72c0 7.68-20.48 12.8-28.16 15.36l-38.4 15.36h-7.68l-15.36-7.68c-12.8-5.12-23.04-10.24-35.84-12.8s-33.28-2.56-46.08 0c-2.56 0-12.8 7.68-12.8 7.68 23.04 10.24 48.64 20.48 71.68 30.72v2.56c0-2.56 0 0 0 0zM944.64 576c-69.12 0-135.68 0-204.8-2.56-17.92-5.12-17.92 0-17.92 2.56v71.68c0 2.56 0 2.56 2.56 2.56h281.6c2.56 0 5.12 0 5.12-5.12v-35.84c0-33.28-23.04-43.52-66.56-33.28z m5.12 46.08h-168.96c-5.12 0-7.68 0-7.68-5.12v-15.36c0-5.12 2.56-5.12 5.12-5.12h168.96c10.24 0 12.8 2.56 12.8 15.36 2.56 10.24 2.56 10.24-10.24 10.24z" fill="#38B129" p-id="9568"></path><path d="M5.12 435.2c15.36 0 15.36 0 15.36-15.36 0-5.12 2.56-5.12 5.12-5.12h209.92c12.8 0 15.36 2.56 15.36 15.36v2.56c0 2.56 0 5.12 5.12 5.12h53.76c2.56 0 2.56 0 2.56-2.56 2.56-28.16-10.24-46.08-38.4-46.08h-71.68c-5.12 0-10.24-5.12-10.24-10.24 0-10.24 2.56-10.24-5.12-10.24h-53.76c-15.36 0-15.36 0-15.36 15.36 0 5.12-2.56 5.12-5.12 5.12h-112.64v40.96c2.56 2.56 2.56 5.12 5.12 5.12z" fill="#39B129" p-id="9569"></path><path d="M5.12 650.24c-2.56 0-2.56 0-5.12-2.56 2.56 5.12 5.12 2.56 5.12 2.56h61.44c10.24 0 23.04 0 33.28-5.12-28.16 7.68-61.44 5.12-94.72 5.12z" fill="#5BBA53" p-id="9570"></path><path d="M76.8 647.68h-74.24c2.56 2.56 2.56 2.56 5.12 2.56 30.72 0 64 2.56 94.72-2.56-7.68-2.56-20.48 0-25.6 0z" fill="#5BBA53" p-id="9571"></path></svg>