<?xml version="1.0" standalone="no"?><!DOCTYPE svg PUBLIC "-//W3C//DTD SVG 1.1//EN" "http://www.w3.org/Graphics/SVG/1.1/DTD/svg11.dtd"><svg t="1652023637446" class="icon" viewBox="0 0 1024 1024" version="1.1" xmlns="http://www.w3.org/2000/svg" p-id="13001" xmlns:xlink="http://www.w3.org/1999/xlink" width="200" height="200"><defs><style type="text/css">@font-face { font-family: feedback-iconfont; src: url("//at.alicdn.com/t/font_1031158_u69w8yhxdu.woff2?t=1630033759944") format("woff2"), url("//at.alicdn.com/t/font_1031158_u69w8yhxdu.woff?t=1630033759944") format("woff"), url("//at.alicdn.com/t/font_1031158_u69w8yhxdu.ttf?t=1630033759944") format("truetype"); }
</style></defs><path d="M1023.24736 793.32864c0 127.0784-103.00416 230.10304-230.07744 230.13376H230.07232C103.00416 1023.43168 0 920.40704 0 793.32864v-563.2C0 103.03488 103.03488 0 230.12864 0h563.04128a230.12864 230.12864 0 0 1 230.12864 230.12864v563.2h-0.0512z" fill="#3072F3" p-id="13002"></path><path d="M817.58208 517.28384A48.512 48.512 0 0 1 787.56352 506.88l-255.56992-200.59648a32.87552 32.87552 0 0 0-40.68864 0L235.68384 506.88a48.73216 48.73216 0 1 1-60.14976-76.69248l255.62624-200.59648a130.17088 130.17088 0 0 1 161.03424 0l255.56992 200.6016a48.72192 48.72192 0 0 1-30.07488 87.0912m-306.06848 311.61856c-131.00032 0.4096-246.90688-84.77696-285.6448-209.92a48.72192 48.72192 0 1 1 92.97408-29.10208c26.112 84.40832 104.31488 141.8496 192.67072 141.52704 88.4736 0.34816 166.76352-57.23136 192.78336-141.7984a48.73728 48.73728 0 0 1 93.07648 28.94336c-38.56896 125.40928-154.6496 210.82624-285.85984 210.35008" fill="#FFFFFF" p-id="13003"></path></svg>