<?xml version="1.0" standalone="no"?><!DOCTYPE svg PUBLIC "-//W3C//DTD SVG 1.1//EN" "http://www.w3.org/Graphics/SVG/1.1/DTD/svg11.dtd"><svg t="1652023558865" class="icon" viewBox="0 0 1024 1024" version="1.1" xmlns="http://www.w3.org/2000/svg" p-id="6994" xmlns:xlink="http://www.w3.org/1999/xlink" width="200" height="200"><defs><style type="text/css">@font-face { font-family: feedback-iconfont; src: url("//at.alicdn.com/t/font_1031158_u69w8yhxdu.woff2?t=1630033759944") format("woff2"), url("//at.alicdn.com/t/font_1031158_u69w8yhxdu.woff?t=1630033759944") format("woff"), url("//at.alicdn.com/t/font_1031158_u69w8yhxdu.ttf?t=1630033759944") format("truetype"); }
</style></defs><path d="M832 908.8H192c-44.8 0-76.8-38.4-76.8-76.8V192c0-44.8 38.4-76.8 76.8-76.8h640c44.8 0 76.8 38.4 76.8 76.8v640c0 44.8-32 76.8-76.8 76.8" fill="#37BF4C" p-id="6995"></path><path d="M633.6 723.2c19.2-32 38.4-64 51.2-102.4l-64-25.6c-19.2 44.8-38.4 83.2-57.6 121.6H454.4c-19.2-51.2-38.4-89.6-64-121.6l-51.2 32c25.6 38.4 44.8 70.4 57.6 102.4H230.4v57.6h556.8v-57.6l-153.6-6.4zM294.4 358.4v230.4h435.2V358.4H294.4z m371.2 172.8H358.4V422.4h307.2v108.8zM249.6 236.8h524.8v64H249.6z" fill="#FFFFFF" p-id="6996"></path></svg>