<?xml version="1.0" standalone="no"?><!DOCTYPE svg PUBLIC "-//W3C//DTD SVG 1.1//EN" "http://www.w3.org/Graphics/SVG/1.1/DTD/svg11.dtd"><svg t="1652023732159" class="icon" viewBox="0 0 1024 1024" version="1.1" xmlns="http://www.w3.org/2000/svg" p-id="17117" xmlns:xlink="http://www.w3.org/1999/xlink" width="200" height="200"><defs><style type="text/css">@font-face { font-family: feedback-iconfont; src: url("//at.alicdn.com/t/font_1031158_u69w8yhxdu.woff2?t=1630033759944") format("woff2"), url("//at.alicdn.com/t/font_1031158_u69w8yhxdu.woff?t=1630033759944") format("woff"), url("//at.alicdn.com/t/font_1031158_u69w8yhxdu.ttf?t=1630033759944") format("truetype"); }
</style></defs><path d="M127.8976 0.648533H895.300267q127.8976 0 127.8976 127.761067V894.976q0 127.744-127.8976 127.761067H127.8976q-127.880533 0-127.8976-127.761067V128.375467q0-127.778133 127.8976-127.761067z m0 0" fill="#F53415" p-id="17118"></path><path d="M470.8864 201.4208l-37.290667 93.4912 112.110934 112.213333h168.3968l63.9488-54.289066s9.591467-17.8688 18.1248-37.905067l-13.0048-56.849067-11.7248-7.458133-117.4528-11.707733-57.122134-71.3216z m0 0" fill="#414141" p-id="17119"></path><path d="M654.848 155.460267h142.3872v0.426666h-142.3872z" fill="#A6A6A7" p-id="17120"></path><path d="M654.848 155.869867h142.3872v0.426666h-142.3872z" fill="#A5A5A6" p-id="17121"></path><path d="M654.848 156.3136h142.3872v0.426667h-142.3872z" fill="#A4A4A5" p-id="17122"></path><path d="M654.848 156.740267h142.3872v0.426666h-142.3872z" fill="#A3A3A4" p-id="17123"></path><path d="M654.848 157.166933h142.3872v0.426667h-142.3872z" fill="#A2A2A3" p-id="17124"></path><path d="M654.848 157.576533h142.3872v0.426667h-142.3872z" fill="#A1A1A2" p-id="17125"></path><path d="M654.848 158.0032h142.3872v0.426667h-142.3872z" fill="#A0A0A1" p-id="17126"></path><path d="M654.848 158.429867h142.3872v0.426666h-142.3872z" fill="#9F9FA0" p-id="17127"></path><path d="M654.848 158.856533h142.3872v0.426667h-142.3872z" fill="#9E9E9F" p-id="17128"></path><path d="M654.848 159.2832h142.3872v0.426667h-142.3872z" fill="#9D9D9E" p-id="17129"></path><path d="M654.848 159.709867h142.3872v0.426666h-142.3872z" fill="#9C9C9D" p-id="17130"></path><path d="M654.848 160.136533h142.3872v0.426667h-142.3872z" fill="#9B9B9C" p-id="17131"></path><path d="M654.848 160.3584h142.3872v0.426667h-142.3872z" fill="#9A9A9B" p-id="17132"></path><path d="M654.848 160.785067h142.3872v0.426666h-142.3872z" fill="#99999A" p-id="17133"></path><path d="M654.848 161.211733h142.3872v0.426667h-142.3872z" fill="#989899" p-id="17134"></path><path d="M654.848 161.621333h142.3872v0.426667h-142.3872z" fill="#979798" p-id="17135"></path><path d="M654.848 162.065067h142.3872v0.426666h-142.3872z" fill="#969697" p-id="17136"></path><path d="M654.848 162.474667h142.3872v0.426666h-142.3872z" fill="#969596" p-id="17137"></path><path d="M654.848 162.901333h142.3872v0.426667h-142.3872z" fill="#959495" p-id="17138"></path><path d="M654.848 163.328h142.3872v0.426667h-142.3872z" fill="#949394" p-id="17139"></path><path d="M654.848 163.754667h142.3872v0.426666h-142.3872z" fill="#939293" p-id="17140"></path><path d="M654.848 164.181333h142.3872v0.426667h-142.3872z" fill="#929192" p-id="17141"></path><path d="M654.848 164.608h142.3872v0.426667h-142.3872z" fill="#919091" p-id="17142"></path><path d="M654.848 165.034667h142.3872v0.426666h-142.3872z" fill="#908F90" p-id="17143"></path><path d="M654.848 165.461333h142.3872v0.426667h-142.3872z" fill="#8F8E8F" p-id="17144"></path><path d="M654.848 165.888h142.3872v0.426667h-142.3872z" fill="#8E8D8E" p-id="17145"></path><path d="M654.848 166.314667h142.3872v0.426666h-142.3872z" fill="#8D8C8D" p-id="17146"></path><path d="M654.848 166.741333h142.3872v0.426667h-142.3872z" fill="#8C8B8C" p-id="17147"></path><path d="M654.848 167.168h142.3872v0.426667h-142.3872z" fill="#8B8A8B" p-id="17148"></path><path d="M654.848 167.3728h142.3872v0.426667h-142.3872z" fill="#8A898A" p-id="17149"></path><path d="M654.848 167.799467h142.3872v0.426666h-142.3872z" fill="#898889" p-id="17150"></path><path d="M654.848 168.226133h142.3872v0.426667h-142.3872z" fill="#888788" p-id="17151"></path><path d="M654.848 168.6528h142.3872v0.426667h-142.3872z" fill="#878687" p-id="17152"></path><path d="M654.848 169.079467h142.3872v0.426666h-142.3872z" fill="#868586" p-id="17153"></path><path d="M654.848 169.506133h142.3872v0.426667h-142.3872z" fill="#858485" p-id="17154"></path><path d="M654.848 169.9328h142.3872v0.426667h-142.3872z" fill="#848384" p-id="17155"></path><path d="M654.848 170.359467h142.3872v0.426666h-142.3872z" fill="#838283" p-id="17156"></path><path d="M654.848 170.786133h142.3872v0.426667h-142.3872z" fill="#828182" p-id="17157"></path><path d="M654.848 171.2128h142.3872v0.426667h-142.3872z" fill="#818081" p-id="17158"></path><path d="M654.848 171.639467h142.3872v0.426666h-142.3872z" fill="#807F80" p-id="17159"></path><path d="M654.848 172.066133h142.3872v0.426667h-142.3872z" fill="#7F7E7F" p-id="17160"></path><path d="M654.848 172.4928h142.3872v0.426667h-142.3872z" fill="#7E7D7E" p-id="17161"></path><path d="M654.848 172.919467h142.3872v0.426666h-142.3872z" fill="#7D7C7D" p-id="17162"></path><path d="M654.848 173.346133h142.3872v0.426667h-142.3872z" fill="#7C7B7C" p-id="17163"></path><path d="M654.848 173.7728h142.3872v0.426667h-142.3872z" fill="#7B7A7B" p-id="17164"></path><path d="M654.848 173.9776h142.3872v0.426667h-142.3872z" fill="#7A797A" p-id="17165"></path><path d="M654.848 174.404267h142.3872v0.426666h-142.3872z" fill="#797879" p-id="17166"></path><path d="M654.848 174.830933h142.3872v0.426667h-142.3872z" fill="#787778" p-id="17167"></path><path d="M654.848 175.2576h142.3872v0.426667h-142.3872z" fill="#777677" p-id="17168"></path><path d="M654.848 175.684267h142.3872v0.426666h-142.3872z" fill="#767576" p-id="17169"></path><path d="M654.848 176.110933h142.3872v0.426667h-142.3872z" fill="#767475" p-id="17170"></path><path d="M654.848 176.5376h142.3872v0.426667h-142.3872z" fill="#757374" p-id="17171"></path><path d="M654.848 176.964267h142.3872v0.426666h-142.3872z" fill="#747273" p-id="17172"></path><path d="M654.848 177.390933h142.3872v0.426667h-142.3872z" fill="#737172" p-id="17173"></path><path d="M654.848 177.8176h142.3872v0.426667h-142.3872z" fill="#727071" p-id="17174"></path><path d="M654.848 178.244267h142.3872v0.426666h-142.3872z" fill="#716F70" p-id="17175"></path><path d="M654.848 178.670933h142.3872v0.426667h-142.3872z" fill="#706E6F" p-id="17176"></path><path d="M654.848 179.0976h142.3872v0.426667h-142.3872z" fill="#6F6D6E" p-id="17177"></path><path d="M654.848 179.524267h142.3872v0.426666h-142.3872z" fill="#6E6C6D" p-id="17178"></path><path d="M654.848 179.950933h142.3872v0.426667h-142.3872z" fill="#6D6B6C" p-id="17179"></path><path d="M654.848 180.3776h142.3872v0.426667h-142.3872z" fill="#6C6A6B" p-id="17180"></path><path d="M654.848 180.7872h142.3872v0.426667h-142.3872z" fill="#6B696A" p-id="17181"></path><path d="M654.848 181.009067h142.3872v0.426666h-142.3872z" fill="#6A6869" p-id="17182"></path><path d="M654.848 181.435733h142.3872v0.426667h-142.3872z" fill="#696768" p-id="17183"></path><path d="M654.848 181.8624h142.3872v0.426667h-142.3872z" fill="#686667" p-id="17184"></path><path d="M654.848 182.289067h142.3872v0.426666h-142.3872z" fill="#676566" p-id="17185"></path><path d="M654.848 182.715733h142.3872v0.426667h-142.3872z" fill="#666465" p-id="17186"></path><path d="M654.848 183.1424h142.3872v0.426667h-142.3872z" fill="#656364" p-id="17187"></path><path d="M654.848 183.569067h142.3872v0.426666h-142.3872z" fill="#646263" p-id="17188"></path><path d="M654.848 183.995733h142.3872v0.426667h-142.3872z" fill="#636162" p-id="17189"></path><path d="M654.848 184.4224h142.3872v0.426667h-142.3872z" fill="#626061" p-id="17190"></path><path d="M654.848 184.832h142.3872v0.426667h-142.3872z" fill="#615F60" p-id="17191"></path><path d="M654.848 185.275733h142.3872v0.426667h-142.3872z" fill="#605E5F" p-id="17192"></path><path d="M654.848 185.685333h142.3872v0.426667h-142.3872z" fill="#5F5D5E" p-id="17193"></path><path d="M654.848 186.112h142.3872v0.426667h-142.3872z" fill="#5E5C5D" p-id="17194"></path><path d="M654.848 186.538667h142.3872v0.426666h-142.3872z" fill="#5D5B5C" p-id="17195"></path><path d="M654.848 186.965333h142.3872v0.426667h-142.3872z" fill="#5C5A5B" p-id="17196"></path><path d="M654.848 187.392h142.3872v0.426667h-142.3872z" fill="#5B595A" p-id="17197"></path><path d="M654.848 187.818667h142.3872v0.426666h-142.3872z" fill="#5A5859" p-id="17198"></path><path d="M654.848 188.040533h142.3872v0.426667h-142.3872z" fill="#595758" p-id="17199"></path><path d="M654.848 188.4672h142.3872v0.426667h-142.3872z" fill="#585657" p-id="17200"></path><path d="M654.848 188.893867h142.3872v0.426666h-142.3872z" fill="#575556" p-id="17201"></path><path d="M654.848 189.320533h142.3872v0.426667h-142.3872z" fill="#565455" p-id="17202"></path><path d="M654.848 189.730133h142.3872v0.426667h-142.3872z" fill="#565454" p-id="17203"></path><path d="M654.848 190.173867h142.3872v0.426666h-142.3872z" fill="#555352" p-id="17204"></path><path d="M654.848 190.583467h142.3872v0.426666h-142.3872z" fill="#545251" p-id="17205"></path><path d="M654.848 191.010133h142.3872v0.426667h-142.3872z" fill="#535150" p-id="17206"></path><path d="M654.848 191.4368h142.3872v0.426667h-142.3872z" fill="#52504F" p-id="17207"></path><path d="M654.848 191.863467h142.3872v0.426666h-142.3872z" fill="#514F4E" p-id="17208"></path><path d="M654.848 192.290133h142.3872v0.426667h-142.3872z" fill="#504E4D" p-id="17209"></path><path d="M654.848 192.7168h142.3872v0.426667h-142.3872z" fill="#4F4D4C" p-id="17210"></path><path d="M654.848 193.143467h142.3872v0.426666h-142.3872z" fill="#4E4C4B" p-id="17211"></path><path d="M654.848 193.570133h142.3872v0.426667h-142.3872z" fill="#4D4B4A" p-id="17212"></path><path d="M654.848 193.9968h142.3872v0.426667h-142.3872z" fill="#4C4A49" p-id="17213"></path><path d="M654.848 194.423467h142.3872v0.426666h-142.3872z" fill="#4B4948" p-id="17214"></path><path d="M654.848 194.850133h142.3872v0.426667h-142.3872z" fill="#4A4847" p-id="17215"></path><path d="M654.848 195.054933h142.3872v0.426667h-142.3872z" fill="#494746" p-id="17216"></path><path d="M654.848 195.4816h142.3872v0.426667h-142.3872z" fill="#484645" p-id="17217"></path><path d="M654.848 195.908267h142.3872v0.426666h-142.3872z" fill="#474544" p-id="17218"></path><path d="M654.848 196.334933h142.3872v0.426667h-142.3872z" fill="#464443" p-id="17219"></path><path d="M654.848 196.7616h142.3872v0.426667h-142.3872z" fill="#454342" p-id="17220"></path><path d="M654.848 197.188267h142.3872v0.426666h-142.3872z" fill="#444241" p-id="17221"></path><path d="M654.848 197.614933h142.3872v0.426667h-142.3872z" fill="#434140" p-id="17222"></path><path d="M654.848 198.0416h142.3872v0.426667h-142.3872z" fill="#42403F" p-id="17223"></path><path d="M654.848 198.468267h142.3872v0.426666h-142.3872z" fill="#413F3E" p-id="17224"></path><path d="M654.848 198.894933h142.3872v0.426667h-142.3872z" fill="#403E3D" p-id="17225"></path><path d="M654.848 199.3216h142.3872v0.426667h-142.3872z" fill="#3F3D3C" p-id="17226"></path><path d="M654.848 199.748267h142.3872v0.426666h-142.3872z" fill="#3E3C3B" p-id="17227"></path><path d="M654.848 200.174933h142.3872v0.426667h-142.3872z" fill="#3D3B3A" p-id="17228"></path><path d="M654.848 200.6016h142.3872v0.426667h-142.3872z" fill="#3C3A39" p-id="17229"></path><path d="M654.848 201.028267h142.3872v0.426666h-142.3872z" fill="#3B3938" p-id="17230"></path><path d="M654.848 201.454933h142.3872v0.426667h-142.3872z" fill="#3A3837" p-id="17231"></path><path d="M654.848 201.8816h142.3872v0.426667h-142.3872z" fill="#393736" p-id="17232"></path><path d="M654.848 202.0864h142.3872v0.426667h-142.3872z" fill="#383635" p-id="17233"></path><path d="M654.848 202.513067h142.3872v0.426666h-142.3872z" fill="#373534" p-id="17234"></path><path d="M654.848 202.939733h142.3872v0.426667h-142.3872z" fill="#363433" p-id="17235"></path><path d="M654.848 203.3664h142.3872v0.426667h-142.3872z" fill="#353332" p-id="17236"></path><path d="M654.848 203.793067h142.3872v0.426666h-142.3872z" fill="#353231" p-id="17237"></path><path d="M654.848 204.219733h142.3872v0.426667h-142.3872z" fill="#343130" p-id="17238"></path><path d="M654.848 204.6464h142.3872v0.426667h-142.3872z" fill="#33302F" p-id="17239"></path><path d="M654.848 205.073067h142.3872v0.426666h-142.3872z" fill="#322F2E" p-id="17240"></path><path d="M654.848 205.499733h142.3872v0.426667h-142.3872z" fill="#312E2D" p-id="17241"></path><path d="M654.848 205.9264h142.3872v0.426667h-142.3872z" fill="#302D2C" p-id="17242"></path><path d="M654.848 206.353067h142.3872v0.426666h-142.3872z" fill="#2F2C2B" p-id="17243"></path><path d="M654.848 206.779733h142.3872v0.426667h-142.3872z" fill="#2E2B2A" p-id="17244"></path><path d="M654.848 207.2064h142.3872v0.426667h-142.3872z" fill="#2D2A29" p-id="17245"></path><path d="M654.848 207.616h142.3872v0.426667h-142.3872z" fill="#2C2928" p-id="17246"></path><path d="M654.848 208.059733h142.3872v0.426667h-142.3872z" fill="#2B2827" p-id="17247"></path><path d="M654.848 208.469333h142.3872v0.426667h-142.3872z" fill="#2A2726" p-id="17248"></path><path d="M654.848 208.896h142.3872v0.426667h-142.3872z" fill="#292625" p-id="17249"></path><path d="M654.848 209.117867h142.3872v0.426666h-142.3872z" fill="#282524" p-id="17250"></path><path d="M654.848 209.544533h142.3872v0.426667h-142.3872z" fill="#272423" p-id="17251"></path><path d="M654.848 209.9712h142.3872v0.426667h-142.3872z" fill="#262322" p-id="17252"></path><path d="M654.848 210.397867h142.3872v0.426666h-142.3872z" fill="#252221" p-id="17253"></path><path d="M654.848 210.824533h142.3872v0.426667h-142.3872z" fill="#242120" p-id="17254"></path><path d="M654.848 211.2512h142.3872v0.426667h-142.3872z" fill="#23201F" p-id="17255"></path><path d="M654.848 211.6608h142.3872v0.426667h-142.3872z" fill="#221F1E" p-id="17256"></path><path d="M654.848 212.104533h142.3872v0.426667h-142.3872z" fill="#211E1D" p-id="17257"></path><path d="M654.848 212.514133h142.3872v0.426667h-142.3872z" fill="#201D1C" p-id="17258"></path><path d="M654.848 212.957867h142.3872v0.426666h-142.3872z" fill="#1F1C1B" p-id="17259"></path><path d="M654.848 213.367467h142.3872v0.426666h-142.3872z" fill="#1E1B1A" p-id="17260"></path><path d="M654.848 213.794133h142.3872v0.426667h-142.3872z" fill="#1D1A19" p-id="17261"></path><path d="M654.848 214.2208h142.3872v0.426667h-142.3872z" fill="#1C1918" p-id="17262"></path><path d="M654.848 214.647467h142.3872v0.426666h-142.3872z" fill="#1B1817" p-id="17263"></path><path d="M654.848 215.074133h142.3872v0.426667h-142.3872z" fill="#1A1716" p-id="17264"></path><path d="M654.848 215.5008h142.3872v0.426667h-142.3872z" fill="#191615" p-id="17265"></path><path d="M654.848 215.722667h142.3872v0.426666h-142.3872z" fill="#181514" p-id="17266"></path><path d="M654.848 216.149333h142.3872v0.426667h-142.3872z" fill="#171413" p-id="17267"></path><path d="M654.848 216.558933h142.3872v0.426667h-142.3872z" fill="#161312" p-id="17268"></path><path d="M654.848 217.002667h142.3872v0.426666h-142.3872z" fill="#151211" p-id="17269"></path><path d="M654.848 217.412267h142.3872v0.426666h-142.3872z" fill="#151110" p-id="17270"></path><path d="M654.848 217.838933h142.3872v0.426667h-142.3872z" fill="#14100F" p-id="17271"></path><path d="M654.848 218.2656h142.3872v0.426667h-142.3872z" fill="#130F0E" p-id="17272"></path><path d="M654.848 218.692267h142.3872v0.426666h-142.3872z" fill="#120E0D" p-id="17273"></path><path d="M654.848 219.118933h142.3872v0.426667h-142.3872z" fill="#110D0C" p-id="17274"></path><path d="M654.848 219.5456h142.3872v0.426667h-142.3872z" fill="#100C0B" p-id="17275"></path><path d="M654.848 219.972267h142.3872v0.426666h-142.3872z" fill="#0F0B0A" p-id="17276"></path><path d="M654.848 220.398933h142.3872v0.426667h-142.3872z" fill="#0E0A09" p-id="17277"></path><path d="M654.848 220.8256h142.3872v0.426667h-142.3872z" fill="#0D0908" p-id="17278"></path><path d="M654.848 221.252267h142.3872v0.426666h-142.3872z" fill="#0C0807" p-id="17279"></path><path d="M654.848 221.678933h142.3872v0.426667h-142.3872z" fill="#0B0706" p-id="17280"></path><path d="M654.848 222.1056h142.3872v0.426667h-142.3872z" fill="#0A0605" p-id="17281"></path><path d="M654.848 222.532267h142.3872v0.426666h-142.3872z" fill="#090504" p-id="17282"></path><path d="M654.848 222.737067h142.3872v0.426666h-142.3872z" fill="#080403" p-id="17283"></path><path d="M654.848 223.163733h142.3872v0.426667h-142.3872z" fill="#070302" p-id="17284"></path><path d="M654.848 223.5904h142.3872v0.426667h-142.3872z" fill="#060201" p-id="17285"></path><path d="M654.848 224.017067h142.3872v0.426666h-142.3872z" fill="#050100" p-id="17286"></path><path d="M269.226667 314.094933c0 13.653333 2.56 27.460267 2.986666 41.3184a67.4816 67.4816 0 0 1-30.0544 60.893867 147.8656 147.8656 0 0 1-52.906666 24.2688 28.552533 28.552533 0 0 1-35.1744-35.345067 136.0896 136.0896 0 0 1 14.2848-36.829866 350.173867 350.173867 0 0 0 34.747733-88.746667 92.9792 92.9792 0 0 1 6.178133-16.810667 21.2992 21.2992 0 0 1 25.1392-11.502933 105.4208 105.4208 0 0 1 21.333334 8.721067c10.4448 5.3248 21.316267 11.7248 30.907733 17.4592 6.4-6.6048 12.356267-13.841067 18.961067-20.224a274.2784 274.2784 0 0 1 78.011733-50.688 661.8112 661.8112 0 0 1 140.9024-48.759467 577.4336 577.4336 0 0 1 69.0688-9.591467c27.511467-1.8944 55.432533-2.9696 82.926933-2.321066a238.2336 238.2336 0 0 1 104.106667 21.282133 57.122133 57.122133 0 0 1 35.601067 41.1136 174.318933 174.318933 0 0 1 0 42.581333 232.379733 232.379733 0 0 1-22.391467 68.778667 34.7648 34.7648 0 0 1-15.138133 14.045867 151.893333 151.893333 0 0 1-47.957334 16.1792 258.816 258.816 0 0 1-138.359466-8.533334 185.634133 185.634133 0 0 1-68.266667-47.2576 33.962667 33.962667 0 0 0-6.178133-6.1952c-2.7648-1.28-7.031467-2.338133-8.96 0a10.018133 10.018133 0 0 0-2.56 8.2944 21.4528 21.4528 0 0 0 5.546666 8.96 202.308267 202.308267 0 0 0 104.448 61.115734 265.437867 265.437867 0 0 0 145.8176-5.3248 53.674667 53.674667 0 0 0 8.106667-3.191467 37.546667 37.546667 0 0 1 8.738133-3.191467c-5.3248 7.867733-10.4448 15.752533-15.7696 23.1936a273.4592 273.4592 0 0 1-145.169066 100.932267 220.808533 220.808533 0 0 1-115.319467 0 418.474667 418.474667 0 0 1-173.5168-85.179733 174.574933 174.574933 0 0 1-40.96-45.789867 87.432533 87.432533 0 0 1-9.3696-21.282133c-1.706667-6.161067-4.061867-10.24-9.3696-11.707734z m465.92-152.6784a79.274667 79.274667 0 0 0-22.3744 2.133334 63.914667 63.914667 0 0 0-31.3344 12.782933 11.946667 11.946667 0 0 0 1.911466 21.2992 53.521067 53.521067 0 0 0 11.502934 4.4544 142.011733 142.011733 0 0 0 54.613333 1.501867 109.738667 109.738667 0 0 0 27.306667-7.458134 15.121067 15.121067 0 0 0 10.4448-14.8992c0-7.031467-6.178133-9.591467-11.298134-12.151466a98.986667 98.986667 0 0 0-40.721066-7.441067z m-213.162667 82.8416a17.2032 17.2032 0 1 0 0-34.269866 17.237333 17.237333 0 1 0 0 34.269866z m83.626667 412.672h-14.4896c-1.28 0-2.9696-2.338133-3.413334-3.822933-3.413333-13.653333-6.4-27.477333-10.24-41.096533a58.606933 58.606933 0 0 0-7.253333-15.121067 10.4448 10.4448 0 0 0-17.902933-1.28 89.309867 89.309867 0 0 0-13.0048 21.2992 308.753067 308.753067 0 0 0-11.093334 34.286933c-1.501867 4.693333-2.986667 7.236267-8.311466 6.4a80.384 80.384 0 0 0-10.018134 0c0-20.0192 1.501867-39.253333 2.338134-60.0576a77.482667 77.482667 0 0 0-11.093334 5.5296 220.603733 220.603733 0 0 0-18.1248 15.991467c-10.4448 10.6496-21.316267 21.282133-30.481066 32.426667-6.178133 6.826667-8.311467 7.458133-19.182934 5.12l38.587734-65.3824a37.546667 37.546667 0 0 1-28.347734-21.2992 34.133333 34.133333 0 0 1 0-24.2688 31.163733 31.163733 0 0 0 2.133334 8.533333 24.302933 24.302933 0 0 0 31.351466 17.681067 19.541333 19.541333 0 0 0 10.018134-7.458134c12.578133-21.2992 24.7296-40.96 36.6592-61.525333a6.826667 6.826667 0 0 1 8.533333-3.84 142.301867 142.301867 0 0 0 59.255467 0 139.537067 139.537067 0 0 0 13.2096-4.676267v162.474667z m-237.448534 78.506667c-1.928533 5.3248-11.52 6.6048-49.493333 6.6048s-46.472533 1.28-46.472533 6.6048 14.916267 6.826667 111.069866 6.826667 111.0528 0 111.0528-6.826667-8.533333-6.6048-49.032533-6.6048-48.827733-1.28-48.827733-6.6048-4.471467-6.6048-12.8-6.6048a16.8448 16.8448 0 0 0-15.547734 6.6048z m208.674134 0c-1.706667 4.898133-8.738133 6.6048-24.7296 6.6048s-21.316267 1.911467-21.316267 6.6048 4.898133 6.826667 17.902933 6.826667c9.796267 0 17.698133 0 17.698134 2.133333a241.3568 241.3568 0 0 1-13.226667 29.013333 182.033067 182.033067 0 0 0-13.431467 30.8736c0 2.781867 16.418133 4.471467 42.666667 4.471467h42.666667v35.549867c0 30.72-1.28 36.4032-8.942934 40.96a18.176 18.176 0 0 0-8.738133 11.946666c0 9.796267 27.4944 2.3552 39.0144-11.076266 8.533333-9.3696 9.796267-16.384 9.796267-44.373334v-33.006933h44.373333c36.027733 0 44.544-1.28 44.544-6.6048s-8.96-6.587733-42.666667-7.441067l-43.707733-1.501866-3.618133-17.902934c-1.28-18.312533-1.706667-18.773333-16.827734-18.773333s-15.138133 0-15.138133 20.002133v20.0192h-21.316267a71.68 71.68 0 0 1-24.507733-2.7648 67.9424 67.9424 0 0 1 9.386667-26.624l11.502933-23.893333h76.9536c65.2288 0 76.9536 0 76.9536-6.826667s-11.298133-6.6048-73.386667-6.6048-72.891733 0-70.7584-6.587733 0-6.6048-12.8-6.6048-16.418133 2.542933-18.3296 6.6048z m-296.721067 58.129067a138.632533 138.632533 0 0 0 0 26.624 350.651733 350.651733 0 0 0 45.824 1.706666h42.666667v24.064c0 34.133333-4.471467 50.466133-13.653334 53.6576a11.7248 11.7248 0 0 0-8.533333 9.796267c0 9.813333 25.361067 4.471467 38.570667-8.533333 8.96-8.311467 10.24-13.653333 10.24-44.373334v-34.7136h88.900266v-53.230933H281.8048z m177.783467 0l-1.28 12.356266h-146.653867l-1.28-12.356266-1.501867-11.946667h151.995734z m-160.938667 63.880533a199.4752 199.4752 0 0 1-16.827733 42.666667l-8.942934 14.6944h9.3696c10.24 0 31.965867-26.624 45.397334-55.569067 11.52-24.712533 10.666667-28.740267-6.178134-28.740267s-15.138133 0-22.818133 27.460267z m135.150933-21.2992a189.627733 189.627733 0 0 0 33.245867 63.880533 39.338667 39.338667 0 0 0 20.036267 13.841067c7.458133 0 7.458133-1.28-2.133334-19.165867a149.0432 149.0432 0 0 1-15.991466-42.666666c-5.3248-21.316267-5.973333-23.005867-21.316267-23.005867-10.24 0-14.711467 2.133333-14.711467 6.6048z m127.8976-3.413333a150.647467 150.647467 0 0 0-5.3248 21.2992 151.022933 151.022933 0 0 1-14.2848 40.96c-8.311467 16.384-9.1648 21.2992-4.266666 21.2992 12.356267 0 43.912533-43.8784 53.2992-74.530134 2.9696-8.942933 1.706667-9.796267-12.578134-9.796266-8.311467 0-16.418133 1.297067-17.271466 3.208533z m125.781334-1.4848a253.422933 253.422933 0 0 0 10.6496 26.197333c11.52 26.197333 36.027733 56.439467 45.4144 56.439467s7.8848-2.133333-1.4848-15.9744a185.361067 185.361067 0 0 1-15.5648-37.2736c-7.458133-27.0336-7.8848-27.682133-23.466667-29.013334h-16.401067z m0 0" fill="#FFFFFF" p-id="17287"></path></svg>