<?xml version="1.0" standalone="no"?><!DOCTYPE svg PUBLIC "-//W3C//DTD SVG 1.1//EN" "http://www.w3.org/Graphics/SVG/1.1/DTD/svg11.dtd"><svg t="1652023491816" class="icon" viewBox="0 0 2640 1024" version="1.1" xmlns="http://www.w3.org/2000/svg" p-id="2853" xmlns:xlink="http://www.w3.org/1999/xlink" width="515.625" height="200"><defs><style type="text/css">@font-face { font-family: feedback-iconfont; src: url("//at.alicdn.com/t/font_1031158_u69w8yhxdu.woff2?t=1630033759944") format("woff2"), url("//at.alicdn.com/t/font_1031158_u69w8yhxdu.woff?t=1630033759944") format("woff"), url("//at.alicdn.com/t/font_1031158_u69w8yhxdu.ttf?t=1630033759944") format("truetype"); }
</style></defs><path d="M600.738 204.342l-88.28-69.605-92.214 72.73-4.796 3.854 97.01 77.34 97.334-77.34-9.054-6.98zM935.289 474.3L512.216 807.909 89.41 474.49l-62.464 50.176 485.269 382.626L997.753 524.45 935.29 474.3z m-423.073 27.055L281.977 319.838l-62.437 50.15L512.19 600.764l292.944-230.993-62.437-50.15-230.48 181.734z m1909.328 383.596h89.52v46.51h-467.376v-46.51h75.076l-48.856-285.4-1.212-7.033 7.06-1.159 32.606-5.336 6.926-1.131 1.185 6.925 50.203 293.134h77.07v-353.55H2018.68v-46.565h225.092v-153.52h-150.07V284.78h353.28v46.538h-156.026v153.52h251.85v46.537h-251.85v353.55h82.675l50.176-293.134 1.186-6.925 6.952 1.131 32.606 5.336 7.034 1.159-1.213 7.006-48.829 285.427z m-661.827-15.172V641.94h115.631V395.803h-47.239v199.6h-68.392V381.304h-47.239v214.097h-67.341v-199.6h-47.239V641.94h114.607v227.84h-67.368V673.226h-47.239v243.092h277.45V673.226h-47.239V869.78h-68.392zM1365.37 641.967l-33.414 32.795-4.932 4.85-4.958-4.85-23.417-22.851-5.174-5.066 5.174-5.066 66.721-65.483v-271.63h-58.287v-46.51h58.287v-123.42h47.239v123.42h68.177v46.538h-68.177v225.253l39.586-38.831 4.958-4.85 4.958 4.85 23.39 22.851 5.175 5.04-5.174 5.092-72.893 71.519v100.54a517.659 517.659 0 0 1-21.288 145.893c-8.22 27.864-16.384 48.155-22.798 61.225l-7.222 14.551-3.126 6.225-6.278-2.99-29.696-14.121-6.468-3.1 3.153-6.467 7.195-14.551c1.024-2.075 3.395-7.384 6.198-14.363 4.58-11.534 9.216-24.738 13.527-39.343 12.235-41.715 19.564-86.61 19.564-132.959v-54.164z m151.148 278.474l1.401-6.871 3.288-15.9c19.725-95.312 27.109-302.349 26.247-554.414h341.126v-208.52h-390.898l0.162 7.25 0.377 16.518a11088.896 11088.896 0 0 1 1.509 303.832c-1.833 200.219-9.54 352.202-24.819 426.038l-3.26 15.899-1.429 6.98 7.007 1.374 32.39 6.467 6.9 1.347z m30.8-623.724l-1.535-115.442h295.532v115.442h-293.996z m980.508 48.56l4.77-5.066 22.447-23.768 4.958-5.255-5.39-4.85-187.553-169.769-4.716-1.832h-195.988l-4.77 1.832-187.554 169.769-5.362 4.85 4.985 5.255 22.393 23.768 4.77 5.066 5.147-4.662 178.068-159.34h160.634l178.04 159.34 5.148 4.662z" fill="#006CFF" p-id="2854"></path></svg>