<?xml version="1.0" standalone="no"?><!DOCTYPE svg PUBLIC "-//W3C//DTD SVG 1.1//EN" "http://www.w3.org/Graphics/SVG/1.1/DTD/svg11.dtd"><svg t="1652023662555" class="icon" viewBox="0 0 1024 1024" version="1.1" xmlns="http://www.w3.org/2000/svg" p-id="13488" xmlns:xlink="http://www.w3.org/1999/xlink" width="200" height="200"><defs><style type="text/css">@font-face { font-family: feedback-iconfont; src: url("//at.alicdn.com/t/font_1031158_u69w8yhxdu.woff2?t=1630033759944") format("woff2"), url("//at.alicdn.com/t/font_1031158_u69w8yhxdu.woff?t=1630033759944") format("woff"), url("//at.alicdn.com/t/font_1031158_u69w8yhxdu.ttf?t=1630033759944") format("truetype"); }
</style></defs><path d="M926.4 529.6v-160L555.2 94.4c-30.4-11.2-62.4-12.8-91.2 0L86.4 377.6v504c6.4 41.6 30.4 62.4 67.2 70.4h731.2c64-19.2 78.4-102.4 0-140.8H217.6l6.4-377.6 268.8-187.2h32L800 444.8v84.8c38.4 56 80 54.4 126.4 0z" fill="#18A65E" p-id="13489"></path><path d="M859.2 691.2m-75.2 0a75.2 75.2 0 1 0 150.4 0 75.2 75.2 0 1 0-150.4 0Z" fill="#18A65E" p-id="13490"></path></svg>