<?xml version="1.0" standalone="no"?><!DOCTYPE svg PUBLIC "-//W3C//DTD SVG 1.1//EN" "http://www.w3.org/Graphics/SVG/1.1/DTD/svg11.dtd"><svg t="1652023695419" class="icon" viewBox="0 0 1024 1024" version="1.1" xmlns="http://www.w3.org/2000/svg" p-id="15490" xmlns:xlink="http://www.w3.org/1999/xlink" width="200" height="200"><defs><style type="text/css">@font-face { font-family: feedback-iconfont; src: url("//at.alicdn.com/t/font_1031158_u69w8yhxdu.woff2?t=1630033759944") format("woff2"), url("//at.alicdn.com/t/font_1031158_u69w8yhxdu.woff?t=1630033759944") format("woff"), url("//at.alicdn.com/t/font_1031158_u69w8yhxdu.ttf?t=1630033759944") format("truetype"); }
</style></defs><path d="M95.4624 583.68c2.56-5.12-2.56-23.04-2.56-23.04-23.04-20.48-17.92 15.36-17.92 15.36 17.92 25.6 20.48 7.68 20.48 7.68z m94.72-15.36s-25.6 0-20.48 17.92c0 0 38.4 10.24 43.52-7.68 0 0 2.56-15.36-23.04-10.24z m-104.96-79.36c-23.04-23.04 7.68-30.72 7.68-30.72 12.8-30.72-15.36-28.16-15.36-28.16-25.6-5.12-10.24 12.8-10.24 12.8-5.12 17.92-17.92 23.04-17.92 23.04-35.84-7.68-7.68-33.28-7.68-33.28-2.56-17.92 25.6-17.92 25.6-17.92 10.24 0 7.68-10.24 7.68-10.24-5.12-20.48-33.28-10.24-33.28-10.24-15.36 10.24-30.72 48.64-30.72 48.64-10.24 20.48 15.36 30.72 15.36 30.72 10.24 15.36-15.36 40.96-15.36 40.96 2.56 40.96 25.6 33.28 25.6 33.28 2.56 7.68 33.28 2.56 33.28 2.56 0-5.12 23.04-20.48 23.04-20.48 5.12-28.16-7.68-40.96-7.68-40.96z m-23.04 43.52s-38.4 0-30.72-15.36c0 0 7.68-20.48 12.8-20.48 0 0 17.92-20.48 30.72 5.12 0 0 5.12 23.04-12.8 30.72zM0.7424 596.48c-5.12 33.28 17.92 20.48 17.92 20.48-2.56-15.36 10.24-23.04 10.24-23.04v-33.28C8.4224 552.96 0.7424 596.48 0.7424 596.48z m43.52-25.6c-7.68 76.8 17.92 35.84 17.92 35.84 5.12-64-17.92-35.84-17.92-35.84z m199.68-120.32c10.24-17.92-12.8-35.84-12.8-35.84l-15.36-2.56c-17.92-7.68-48.64-2.56-48.64-2.56-17.92 5.12-51.2 2.56-51.2 2.56-23.04 28.16-2.56 56.32-2.56 56.32v53.76c-5.12 48.64-23.04 74.24-23.04 74.24 2.56 30.72 20.48 12.8 20.48 12.8 12.8-7.68 17.92-66.56 17.92-66.56l12.8 5.12v30.72c7.68 12.8 20.48 7.68 20.48 5.12v-7.68c-7.68-2.56-2.56-28.16-2.56-28.16 0-12.8 53.76-7.68 53.76-7.68 10.24-28.16-28.16-20.48-28.16-20.48-7.68 0-5.12-17.92-5.12-17.92 17.92-10.24 40.96 0 40.96 5.12v84.48c7.68 48.64 25.6 17.92 25.6 17.92 5.12-12.8-7.68-51.2-7.68-51.2-7.68-28.16 5.12-107.52 5.12-107.52z m-79.36 74.24c-25.6-5.12-33.28 2.56-33.28 2.56-2.56-38.4 33.28-23.04 33.28-23.04v20.48z m56.32-43.52l-23.04-2.56 2.56-12.8c10.24-5.12 7.68-25.6 7.68-25.6-25.6-15.36-23.04 20.48-23.04 20.48 0 28.16-20.48 23.04-20.48 23.04H136.4224c-25.6-17.92-5.12-48.64-5.12-48.64l25.6-5.12c0-10.24 38.4-5.12 38.4-5.12 23.04 2.56 25.6 17.92 25.6 17.92v38.4z m204.8 74.24s-48.64 30.72-61.44 43.52c0 0-35.84 10.24-48.64 12.8 0 0-33.28 33.28 30.72 17.92 0 0 33.28-15.36 48.64-30.72 0 0 43.52-33.28 58.88-46.08 0 0 2.56-28.16-28.16 2.56z m84.48 0c0-38.4-46.08-56.32-46.08-56.32-5.12 0-35.84-2.56-35.84-2.56-23.04-2.56-15.36 17.92-15.36 17.92-66.56 56.32-104.96 56.32-104.96 56.32-33.28 20.48 5.12 23.04 5.12 23.04 33.28 2.56 120.32-74.24 120.32-74.24 7.68-5.12 20.48 0 20.48 0 0 10.24 5.12 15.36 5.12 15.36 51.2-7.68 23.04 46.08 23.04 46.08-15.36 28.16-53.76 25.6-53.76 25.6-23.04-15.36-20.48 0-20.48 0 7.68 58.88 71.68 10.24 71.68 10.24 40.96-30.72 30.72-61.44 30.72-61.44z m-81.92-104.96c28.16-5.12 7.68-17.92 7.68-17.92-10.24-5.12-66.56 0-66.56 0-15.36 10.24 0 17.92 0 17.92h58.88z m-279.04-7.68c-10.24 10.24 2.56 28.16 2.56 28.16 10.24 10.24 15.36 2.56 15.36 2.56v-17.92c-5.12-17.92-17.92-12.8-17.92-12.8z m156.16 102.4c66.56-2.56 94.72-51.2 94.72-51.2l64-2.56c20.48-7.68 20.48-20.48 20.48-20.48 5.12-7.68 0-33.28 0-33.28-2.56-35.84-17.92-40.96-17.92-40.96-12.8-2.56-17.92-5.12-17.92-5.12-10.24-5.12-38.4 0-38.4 0-15.36-10.24-48.64 0-48.64 0-28.16 10.24-5.12 23.04-5.12 23.04 104.96-23.04 104.96 12.8 104.96 12.8 10.24 40.96-10.24 40.96-10.24 40.96-28.16 0-23.04 5.12-23.04 5.12-10.24 0-12.8-2.56-12.8-2.56-17.92-5.12-35.84 5.12-35.84 5.12h-17.92c-10.24 0-12.8-15.36-12.8-15.36v-40.96c-12.8-20.48-23.04 2.56-23.04 2.56v53.76c12.8 30.72 46.08 17.92 46.08 17.92-5.12 15.36-43.52 28.16-43.52 28.16-10.24 2.56-25.6 0-25.6 0-17.92 15.36 2.56 23.04 2.56 23.04zM873.7024 471.04h23.04v17.92h-23.04zM873.7024 535.04l25.6-2.56v-15.36h-25.6zM873.7024 494.08h23.04v17.92h-23.04z" fill="#FB2505" p-id="15491"></path><path d="M576.7424 389.12V614.4H1024.7424v-225.28H576.7424z m258.56 30.72c12.8 5.12 20.48 10.24 25.6 15.36 5.12 2.56 7.68 7.68 7.68 10.24s0 7.68-2.56 10.24l-5.12 5.12c-2.56 0-2.56 0-5.12-2.56 0 0-2.56-2.56-2.56-7.68 0-5.12-2.56-7.68-5.12-12.8s-7.68-7.68-12.8-12.8v-5.12zM640.7424 448h28.16c-2.56 0-2.56-2.56-2.56-7.68 0-2.56-2.56-7.68-2.56-10.24-2.56-2.56-2.56-5.12-5.12-7.68l2.56-2.56c7.68 2.56 12.8 5.12 17.92 10.24 5.12 2.56 5.12 7.68 5.12 10.24 0 2.56-2.56 7.68-5.12 10.24h12.8l5.12-7.68c0-2.56 2.56-2.56 2.56-2.56s2.56 0 2.56 2.56c2.56 0 5.12 2.56 7.68 5.12l5.12 5.12v2.56s0 2.56-2.56 2.56H633.0624l-2.56-7.68c2.56-2.56 5.12-2.56 10.24-2.56z m23.04 25.6c0 2.56 0 5.12-2.56 7.68s-2.56 5.12-5.12 5.12h-2.56s0-2.56-2.56-7.68c0-5.12-2.56-7.68-2.56-10.24 0-2.56-2.56-7.68-5.12-10.24l2.56-2.56c7.68 5.12 12.8 7.68 15.36 10.24 2.56 2.56 2.56 5.12 2.56 7.68z m-40.96 97.28c10.24-15.36 17.92-33.28 23.04-48.64 2.56 2.56 7.68 2.56 10.24 5.12 2.56 2.56 5.12 2.56 5.12 2.56s0 2.56-2.56 2.56c0 0-2.56 0-2.56 2.56 0 0-2.56 2.56-2.56 5.12-5.12 10.24-15.36 20.48-28.16 33.28l-2.56-2.56z m56.32-12.8c0 7.68 0 12.8-2.56 15.36 0 2.56-2.56 5.12-7.68 7.68s-7.68 2.56-7.68 2.56-2.56 0-2.56-2.56-2.56-5.12-5.12-7.68c-2.56-2.56-5.12-2.56-12.8-7.68V563.2c7.68 2.56 15.36 2.56 17.92 2.56s5.12 0 5.12-2.56v-46.08h-30.72l-2.56-5.12H666.3424v-17.92h-33.28l-2.56-7.68h48.64c5.12-12.8 7.68-25.6 10.24-35.84 7.68 2.56 12.8 5.12 15.36 7.68 2.56 0 2.56 2.56 2.56 2.56l-2.56 2.56c-2.56 0-2.56 2.56-5.12 2.56s-5.12 7.68-12.8 20.48h5.12l7.68-7.68 2.56-2.56s2.56 2.56 7.68 5.12 7.68 7.68 7.68 7.68-2.56 2.56-5.12 2.56h-35.84v20.48h10.24l5.12-7.68c0-2.56 2.56-2.56 2.56-2.56s2.56 0 5.12 2.56 5.12 5.12 7.68 5.12 2.56 2.56 2.56 5.12-2.56 2.56-5.12 2.56h-30.72l5.12 40.96z m5.12-33.28c7.68 2.56 12.8 7.68 17.92 10.24 5.12 2.56 7.68 7.68 7.68 10.24s0 5.12-2.56 10.24l-5.12 5.12s-2.56-2.56-2.56-5.12c-2.56-10.24-7.68-20.48-12.8-28.16l-2.56-2.56z m104.96-33.28h-23.04V583.68s0 2.56-2.56 2.56c0 0-2.56 2.56-5.12 2.56s-5.12 2.56-5.12 2.56-2.56 0-2.56-2.56v-94.72h-17.92c0 20.48-2.56 30.72-2.56 38.4s-2.56 12.8-5.12 17.92c-2.56 5.12-5.12 10.24-10.24 17.92s-12.8 12.8-20.48 20.48l-2.56-5.12c7.68-7.68 12.8-15.36 15.36-20.48s5.12-12.8 7.68-23.04c2.56-7.68 2.56-17.92 2.56-28.16v-38.4V435.2l15.36 7.68c7.68-2.56 20.48-10.24 38.4-20.48 7.68 10.24 12.8 17.92 12.8 17.92h-2.56-5.12c-2.56 0-7.68 0-17.92 2.56-10.24 2.56-17.92 2.56-25.6 5.12v35.84h30.72l7.68-10.24c0-2.56 2.56-2.56 2.56-2.56s5.12 2.56 10.24 7.68c5.12 5.12 7.68 7.68 7.68 10.24 2.56 2.56 0 2.56-2.56 2.56z m48.64 84.48c0 2.56 0 2.56-2.56 2.56s-2.56 2.56-7.68 2.56c-2.56 2.56-5.12 2.56-7.68 2.56v-10.24-104.96-15.36c5.12 0 7.68 2.56 10.24 5.12 2.56 2.56 5.12 2.56 7.68 2.56 0 0 2.56 0 2.56 2.56l-5.12 5.12 2.56 107.52z m74.24-7.68s-2.56 2.56-7.68 2.56c-5.12 2.56-5.12 2.56-7.68 2.56V537.6l-48.64 5.12c-2.56 0-5.12 0-7.68 2.56V537.6h20.48v-66.56h-12.8l-2.56-7.68H914.6624l5.12-7.68c0-2.56 2.56-2.56 2.56-2.56s2.56 0 5.12 2.56l7.68 5.12 5.12 5.12s0 2.56-2.56 2.56h-20.48v61.44h5.12l5.12-7.68c0-2.56 2.56-2.56 2.56-2.56s2.56 2.56 7.68 5.12 7.68 5.12 7.68 7.68-2.56 2.56-5.12 2.56l-28.16 2.56V568.32c2.56 0 0 0 0 0z m46.08-120.32v130.56c0 2.56-2.56 5.12-7.68 7.68-7.68 2.56-10.24 2.56-12.8 2.56-2.56 0-2.56 0-2.56-2.56s-2.56-5.12-5.12-7.68-7.68-5.12-15.36-7.68v-5.12c7.68 2.56 15.36 2.56 17.92 2.56h7.68s2.56-2.56 2.56-5.12v-120.32h-53.76l-5.12-7.68H940.2624l2.56-7.68 2.56-2.56s2.56 0 7.68 2.56l7.68 5.12c2.56 0 2.56 2.56 2.56 2.56 2.56 7.68 0 10.24-5.12 12.8z" fill="#FB2505" p-id="15492"></path></svg>