<?xml version="1.0" standalone="no"?><!DOCTYPE svg PUBLIC "-//W3C//DTD SVG 1.1//EN" "http://www.w3.org/Graphics/SVG/1.1/DTD/svg11.dtd"><svg t="1652023748574" class="icon" viewBox="0 0 1024 1024" version="1.1" xmlns="http://www.w3.org/2000/svg" p-id="19048" xmlns:xlink="http://www.w3.org/1999/xlink" width="200" height="200"><defs><style type="text/css">@font-face { font-family: feedback-iconfont; src: url("//at.alicdn.com/t/font_1031158_u69w8yhxdu.woff2?t=1630033759944") format("woff2"), url("//at.alicdn.com/t/font_1031158_u69w8yhxdu.woff?t=1630033759944") format("woff"), url("//at.alicdn.com/t/font_1031158_u69w8yhxdu.ttf?t=1630033759944") format("truetype"); }
</style></defs><path d="M204.8 0h614.4C931.84 0 1024 92.16 1024 204.8v614.4c0 112.64-92.16 204.8-204.8 204.8H204.8C92.16 1024 0 931.84 0 819.2V204.8C0 92.16 92.16 0 204.8 0z" fill="#F40009" p-id="19049"></path><path d="M286.766545 148.992l-194.490181 137.355636 194.490181 142.661819V148.992z m15.36 0v280.017455l200.424728-138.65891-200.424728-141.358545z m-209.850181 157.323636v277.992728l191.162181-138.961455-191.162181-139.031273z m194.490181 153.320728v278.667636l-194.490181-142.312727 194.490181-136.354909z m15.36 0v278.667636l190.789819-139.333818-190.789819-139.333818z m6.656 290.699636l197.12 142.010182-1.024-280.32-196.096 138.309818z m209.780364-138.309818v280.32l196.421818-142.359273-196.421818-137.960727z m11.962182-12.032l191.511273-141.312 1.000727 279.621818-192.512-138.309818z m205.125818-141.312v279.621818l196.514909-140.8-196.514909-138.821818z m4.701091-14.359273l191.813818 139.985455V305.361455l-191.813818 138.961454z m-4.701091-295.330909v280.017455l196.514909-142.010182-196.514909-138.007273z m-12.613818 0l-203.473455 142.010182 203.473455 138.007273V148.992z" fill="#FFFFFF" p-id="19050"></path><path d="M387.211636 239.825455c-0.349091 6.912-6.772364 12.381091-14.638545 12.38109-7.912727 0-14.289455-5.469091-14.638546-12.38109-16.523636 2.792727-22.621091 8.052364-35.397818 14.545454a2.676364 2.676364 0 0 0-0.651636 4.282182l10.333091 15.36 5.422545-5.469091v55.086545c0 3.118545 2.513455 5.608727 5.585455 5.608728h58.158545c3.328 0 6.050909-2.746182 6.050909-6.074182v-54.690909l5.422546 5.492363 9.704727-12.683636c1.629091-1.629091 2.210909-6.376727 0.116364-7.400727-12.427636-6.306909-20.340364-12.218182-35.467637-14.056727zM199.936 326.749091c0.232727 0.395636 4.096 6.725818 11.473455 7.028364a14.219636 14.219636 0 0 0 10.472727-4.421819c0.721455 0.651636 5.608727 4.654545 12.520727 3.700364a16.104727 16.104727 0 0 0 10.472727-6.260364c0.535273 0.349091 6.283636 3.956364 11.240728 1.489455 5.352727-2.676364 6.004364-9.937455 5.003636-14.242909-0.605091-2.490182-1.629091-3.328-4.538182-7.493818-0.651636-0.954182-3.444364-5.771636-9.029818-15.499637a1106.850909 1106.850909 0 0 1-8.145455-14.289454c0.954182-4.701091 2.048-9.355636 3.258182-13.986909 1.303273-5.12 2.094545-7.400727 1.000728-10.24-0.349091-0.930909-0.698182-1.512727-3.723637-6.283637 2.187636-4.514909 2.071273-8.517818 0.232727-9.774545-1.140364-0.768-2.746182-0.279273-3.025454-0.232727-2.629818 0.791273-4.491636 4.072727-4.491636 8.238545a13.102545 13.102545 0 0 0-10.24 5.771636 15.010909 15.010909 0 0 0-10.752-5.771636c0.162909-3.886545-1.442909-7.028364-4.00291-7.982545-0.349091-0.116364-1.838545-0.721455-3.025454-0.069819-1.954909 1.070545-2.490182 5.12-0.651636 10.077091a21.410909 21.410909 0 0 0-2.746182 7.493818c-0.837818 4.887273 0.232727 9.122909 1.024 11.985455 1.419636 5.422545 2.909091 6.539636 2.490182 9.774545a11.566545 11.566545 0 0 1-3.258182 6.493091c-6.190545 11.124364-12.334545 22.341818-18.525091 33.466182-1.000727 4.654545 1.024 9.402182 5.003636 11.729455a10.612364 10.612364 0 0 0 11.962182-0.698182z m-56.180364 89.227636c0.768-10.612364 8.866909-19.013818 18.501819-20.014545 11.077818-1.186909 21.969455 7.610182 22.970181 20.014545a22.318545 22.318545 0 0 1 12.613819 5.422546c1.908364 1.792 4.584727 4.933818 7.26109 16.756363 2.280727 10.007273 2.792727 18.385455 3.630546 31.790546a16.663273 16.663273 0 0 1-14.219636 12.753454H135.074909a17.803636 17.803636 0 0 1-14.987636-14.475636c-0.139636-2.327273-0.977455-26.461091 6.004363-39.261091 1.070545-1.908364 2.955636-5.492364 7.005091-8.517818a24.669091 24.669091 0 0 1 10.658909-4.468364z" fill="#F40009" p-id="19051"></path><path d="M151.016727 415.744H178.501818s-2.722909-11.985455-13.730909-11.985455-13.754182 11.985455-13.754182 11.985455z" fill="#FFFFFF" p-id="19052"></path><path d="M253.905455 636.509091h6.49309s-0.768-29.44 0-34.024727c1.722182-10.007273 11.077818-27.042909 10.007273-33.233455-2.280727-13.218909-14.778182-21.504-16.500363-20.736-1.722182 0.768-16.477091 17.268364-20.992 29.486546-4.538182 12.218182-12.753455 29.253818-13.98691 29.486545-1.256727 0.232727-14.475636 2.024727-26.484363 6.516364-11.077818 4.142545-20.014545 8.494545-17.966546 12.497454 2.001455 3.979636 13.730909 10.007273 30.231273 10.007273 19.735273 0 26.461091-1.256727 29.975273-16.034909 3.467636-14.475636 3.816727-21.317818 10.24-27.997091 0.465455-0.465455 4.119273-4.235636 6.260363-3.258182 0 0 0.465455 0.232727 2.490182 3.258182l0.232728 44.032z m75.170909-3.514182h87.179636a7.214545 7.214545 0 0 0 2.978909-1.489454 7.517091 7.517091 0 0 0 2.490182-4.235637V569.018182a9.658182 9.658182 0 0 0-2.490182-3.514182 9.751273 9.751273 0 0 0-5.771636-2.280727h-13.498182c-0.907636-1.954909-2.513455-2.978909-6.260364-8.215273-1.373091-1.908364-3.560727-2.373818-5.003636-2.978909H356.538182c-1.140364 0.605091-2.978909 1.024-3.746909 2.513454-2.746182 5.236364-5.236364 6.609455-6.027637 8.750546-5.888 0.232727-11.822545 0.465455-17.733818 0.768a6.656 6.656 0 0 0-5.282909 5.957818v57.716364a6.865455 6.865455 0 0 0 5.352727 5.259636z m109.149091 57.018182l-5.236364 6.702545h10.705454l-5.46909-6.725818z m-54.458182 58.484364c0.535273-3.816727 3.630545-24.436364 22.248727-38.004364a55.668364 55.668364 0 0 1 51.898182-7.098182c9.285818 3.700364 16.616727 10.24 17.803636 11.310546 4.328727 3.956364 8.029091 7.284364 10.775273 12.986181 6.469818 13.521455 4.328727 20.736 6.469818 20.736a26.600727 26.600727 0 0 0-27.182545 0 25.274182 25.274182 0 0 0-22.039273-2.978909v42.472728a18.618182 18.618182 0 0 1-4.096 6.912 19.269818 19.269818 0 0 1-19.083636 5.12c-9.541818-2.909091-13.288727-12.869818-13.172364-17.268364a9.309091 9.309091 0 0 1 0.954182-3.700364c0.232727-0.349091 2.210909-3.933091 5.236363-3.816727 2.746182 0.139636 4.584727 3.165091 5.236364 5.003636 0.884364 2.443636-0.186182 3.351273 0.768 5.003637 1.559273 2.862545 6.679273 4.189091 9.239273 2.513454 1.303273-0.884364 3.909818-5.073455 2.955636-3.746909l1.256727-38.795636a26.251636 26.251636 0 0 0-21.969454 3.211636 27.252364 27.252364 0 0 0-13.730909-3.723636 28.532364 28.532364 0 0 0-13.568 3.863273z m168.773818-16.337455v49.873455a8.378182 8.378182 0 0 0 8.331636 8.331636h48.919273a7.028364 7.028364 0 0 0 7.028364-7.028364v-50.990545a5.352727 5.352727 0 0 0-5.352728-5.352727h-53.806545c-2.792727 0-5.12 2.327273-5.12 5.166545z m5.050182-13.149091h55.645091c1.629091 0 3.025455-1.140364 3.211636-2.629818 0.186182-1.722182-0.535273-3.630545-4.817455-3.630546H557.614545a3.141818 3.141818 0 0 0-3.211636 3.095273c-0.046545 1.722182 1.442909 3.165091 3.211636 3.165091z m2.513454-6.283636s7.214545-14.452364 20.992-14.452364c25.949091-0.069818 28.741818 14.475636 28.741818 14.475636h-49.733818z" fill="#F40009" p-id="19053"></path><path d="M587.636364 703.162182h-4.328728a2.722909 2.722909 0 0 1-2.746181-2.746182v-5.469091c0-1.489455 1.210182-2.746182 2.746181-2.746182h4.352c1.489455 0 2.722909 1.186909 2.722909 2.746182v5.469091a2.722909 2.722909 0 0 1-2.722909 2.746182z m51.898181-140.171637c2.699636-1.861818 9.006545-5.538909 17.757091-6.004363 10.938182-0.605091 18.850909 4.212364 21.480728 6.004363l-4.235637-15.19709a5.166545 5.166545 0 0 0-5.003636-3.793455h-21.480727a4.538182 4.538182 0 0 0-4.421819 3.374545l-4.072727 15.616z m39.168 66.792728c-2.676364 1.838545-8.983273 5.515636-17.733818 6.004363-10.938182 0.581818-18.850909-4.235636-21.480727-6.027636l4.235636 15.197091a5.166545 5.166545 0 0 0 4.980364 3.816727h21.480727c2.094545 0 3.956364-1.442909 4.421818-3.397818l4.096-15.592727z" fill="#F40009" p-id="19054"></path><path d="M627.525818 595.874909a31.371636 31.371636 0 1 0 62.72 0 31.371636 31.371636 0 1 0-62.72 0z m149.248-39.610182h-3.211636a2.397091 2.397091 0 0 1-2.373818-2.397091v-11.729454c0-1.303273 1.070545-2.373818 2.373818-2.373818h3.211636c1.326545 0 2.373818 1.070545 2.397091 2.373818v11.729454a2.397091 2.397091 0 0 1-2.397091 2.397091z m27.787637 0h-3.444364a2.56 2.56 0 0 1-2.56-2.56v-14.196363a2.56 2.56 0 0 1 2.56-2.56h3.444364a2.56 2.56 0 0 1 2.56 2.56v14.196363a2.56 2.56 0 0 1-2.56 2.56z m28.043636 0h-3.630546a2.676364 2.676364 0 0 1-2.676363-2.676363v-11.217455a2.676364 2.676364 0 0 1 2.676363-2.676364h3.630546a2.676364 2.676364 0 0 1 2.676364 2.676364v11.217455a2.746182 2.746182 0 0 1-2.676364 2.676363z m2.187636 85.480728h-63.138909a8.005818 8.005818 0 0 1-8.029091-8.052364v-66.001455a3.211636 3.211636 0 0 1 3.211637-3.211636h73.309091c1.629091 0 2.932364 1.303273 2.932363 2.909091v66.094545a8.261818 8.261818 0 0 1-8.285091 8.261819z" fill="#F40009" p-id="19055"></path><path d="M841.588364 583.237818s14.568727 1.629091 19.456 9.774546c5.469091 9.122909 2.676364 19.781818-3.490909 24.715636-6.516364 5.259636-14.475636 5.259636-14.475637 5.259636v-7.517091s13.730909-3.979636 12.497455-13.521454c-1.256727-9.541818-13.986909-11.008-13.986909-11.008v-7.68z m-37.003637-142.359273a7.912727 7.912727 0 0 0 0.116364 7.866182c3.328 5.701818 10.752 13.870545 19.316364 19.549091 11.450182 7.493818 20.712727 6.004364 20.712727 6.004364s14.242909 12.986182 18.525091 13.986909c4.282182 1.024 5.469091-1.256727 5.469091-4.747636v-14.010182s10.007273-3.746909 15.243636-9.006546c5.236364-5.236364 8.215273-8.750545 11.240727-7.726545 3.025455 1.000727 10.472727 11.264 16.244364 12.264727 5.771636 1.000727 10.007273-2.513455 7.982545-8.517818-2.024727-6.027636-5.492364-11.682909-5.492363-11.682909s6.027636-8.098909 6.027636-13.824c0-5.771636-5.771636-10.24-11.008-7.493818-5.236364 2.746182-11.008 11.962182-14.475636 11.962181-3.444364 0-10.705455-9.634909-17.733818-12.8-7.028364-3.165091-8.494545-4.189091-8.494546-4.18909s1.722182-14.987636 0-17.245091c-1.745455-2.280727-8.215273 0.232727-12.264727 3.258181-4.049455 3.048727-11.008 10.24-11.008 10.24s-12.497455-0.232727-26.973091 9.774546c-6.353455 4.421818-10.938182 11.799273-13.451636 16.337454z m-43.450182-148.759272a42.635636 42.635636 0 1 0 85.224728 0 42.635636 42.635636 0 1 0-85.224728 0z" fill="#F40009" p-id="19056"></path><path d="M771.374545 226.001455s10.705455-2.443636 18.501819 0.768c10.24 4.235636 11.240727 18.548364 11.240727 18.548363s-9.448727 5.469091-19.456-2.024727c-10.007273-7.517091-10.286545-17.291636-10.286546-17.291636z m55.761455 5.12s-8.098909-1.838545-13.986909 0.60509c-7.749818 3.211636-8.517818 13.986909-8.517818 13.98691s7.214545 4.189091 14.754909-1.489455c7.563636-5.655273 7.749818-13.102545 7.749818-13.102545z m-189.253818 98.234181h43.752727c0.349091 0 0.512-0.465455 0.162909-0.651636a76.8 76.8 0 0 0-11.124363-5.189818c-7.028364-2.490182-8.983273-4.212364-8.983273-4.212364v-14.894545s8.983273-7.563636 14.987636-12.218182 15.709091-17.384727 15.709091-28.113455c0-10.705455-3.979636-27.880727-3.979636-27.880727h-59.624728s-4.235636 23.831273-2.024727 33.838546c3.723636 12.753455 14.987636 21.969455 20.712727 27.22909 5.701818 5.236364 8.494545 7.493818 8.494546 7.493819v15.243636l-18.315636 8.285091c-0.535273 0.232727-0.372364 1.070545 0.232727 1.070545z" fill="#F40009" p-id="19057"></path><path d="M436.968727 386.001455l19.456-41.518546 15.010909 40.494546 15.988364 2.048v14.242909l24.459636-5.003637-17.733818-50.501818 47.429818 20.014546-11.054545 33.698909 23.086545-5.236364 20.48-49.757091 33.745455 26.298182-33.28 25.716364 33.28-0.232728 8.192 25.716364h-21.224727l-7.517091 31.045818 27.252363 5.655273 8.750546 24.552727-32.488727 3.746909-7.493819 52.247273-17.733818 11.543273-11.240727-66.001455-21.410909-1.536-13.358546 56.296727-18.688 11.240728-2.187636-64.023273-16.011636-1.745455-6.260364-19.549091-7.261091 9.541819-10.007273 76.986181-39.68-28.25309 25.483637-7.214546-4.701091-37.050182-13.986909 11.799273-12.032-40.029091 27.741091-4.468364-3.258182-27.99709-8.238546-1.792-13.265454-24.22691z" fill="#FFFFFF" p-id="19058"></path><path d="M478.929455 407.738182l-7.749819 10.24-3.956363 28.788363 23.970909-1.419636-7.261091 15.895273 23.970909-8.517818-5.352727-24.948364-16.128-4.538182-7.493818-15.476363z m60.16 19.735273l20.247272-4.468364 2.792728 28.462545-27.508364 5.306182 4.468364-29.323636z" fill="#F40009" p-id="19059"></path></svg>