<?xml version="1.0" standalone="no"?><!DOCTYPE svg PUBLIC "-//W3C//DTD SVG 1.1//EN" "http://www.w3.org/Graphics/SVG/1.1/DTD/svg11.dtd"><svg t="1652023711987" class="icon" viewBox="0 0 1024 1024" version="1.1" xmlns="http://www.w3.org/2000/svg" p-id="16004" xmlns:xlink="http://www.w3.org/1999/xlink" width="200" height="200"><defs><style type="text/css">@font-face { font-family: feedback-iconfont; src: url("//at.alicdn.com/t/font_1031158_u69w8yhxdu.woff2?t=1630033759944") format("woff2"), url("//at.alicdn.com/t/font_1031158_u69w8yhxdu.woff?t=1630033759944") format("woff"), url("//at.alicdn.com/t/font_1031158_u69w8yhxdu.ttf?t=1630033759944") format("truetype"); }
</style></defs><path d="M482.23 119.35c3.26-0.6 6.46-1.7 9.81-1.6 15 0.01 29.99-0.01 44.99-0.04 7.41-0.43 14.56 2.43 21.98 2.04 3.21-0.2 6.17 1.27 8.97 2.67-0.2 1.29-0.3 2.63-0.79 3.85-1.77 0.37-3.59 0.36-5.37 0.51-1.31 0.5-2.67 0.9-4 1.32-2.92 0.82-5.97 0.54-8.96 0.65-3.07 1.69-6.52 2.16-9.97 2.07-1.34 0.5-2.72 0.87-4.07 1.25-1.34 0.33-2.68 0.62-4.01 0.92-2.64 0.76-5.31 1.44-8.01 1.95-2.56 1.03-5.22 1.89-8 1.92-2.14 1.28-4.5 2.03-7.01 2.02-2.27 0.91-4.6 1.7-7.03 2.06-4.08 1.14-7.86 3.25-12.04 3.99-24.07 9.15-47.91 19.67-69.2 34.28-7.33 4.52-14.33 9.61-21.18 14.84-5.4 4.72-10.79 9.44-16.35 13.96-6.81 6.85-13.7 13.64-20.47 20.52-7.92 9.82-16.66 19.04-23.45 29.73-12.19 17.26-22.2 35.97-30.82 55.25-1.84 4.66-3.73 9.3-5.92 13.81-7.02 19.11-12.92 38.63-17.28 58.51-0.38 4.82-2.48 9.35-2.41 14.22-0.04 3.46-2.32 6.51-1.94 10.04 0.4 4.46-2.12 8.49-2 12.91 0.17 4.71-1.15 9.27-1.88 13.88-0.52 4.98 0.52 10.09-0.79 14.99-0.96 5.02 0.36 10.23-0.84 15.24-0.82 3.22-0.44 6.56-0.51 9.85 0.13 4.23-0.44 8.55 0.67 12.7 1.1 6.78-0.62 13.78 1.11 20.5 0.78 6.29-0.37 12.7 0.57 18.99 0.84 2.93 0.46 6.02 1.03 9 1.58 6.23-0.34 12.78 1.39 18.99 0.39 3.98 0.08 8.01 1.16 11.92 0.26 8.63 0.03 17.29 0.13 25.93-1.3 15.59-7.62 30.56-17.37 42.75-12.38 13.7-30.07 22.16-48.33 24.14-6.37-0.09-12.75 0.11-19.11-0.13-9.5-1.42-18.58-5.06-26.94-9.72-7.6-3.6-13.2-10.08-19.47-15.47-6.19-7.84-12.13-16.43-14.12-26.4-8.2-27.69-13.42-56.33-14.53-85.19-1.18-5.59-0.64-11.31-0.73-16.97 0.1-4.45-0.39-8.94 0.49-13.33 1.27-6.62-0.24-13.42 0.97-20.04 1.31-8.53 1.58-17.16 3.24-25.63-0.06-4.46 1.93-8.53 2.28-12.92 12.46-62.02 38.83-121.74 79.09-170.81 4.3-5.02 8.2-10.42 13.04-14.96 7.72-9.57 17.04-17.69 25.55-26.54 7.67-6.26 14.62-13.37 22.57-19.3 11.05-9.14 22.83-17.32 34.81-25.19 12.23-7.12 24.22-14.79 37.17-20.6 20.11-10.51 41.66-17.86 63.24-24.63 6.83-2.07 13.85-3.42 20.61-5.74 4.79-0.26 9.22-2.28 13.99-2.57 3-0.41 5.77-1.89 8.85-1.85 4.42 0.03 8.49-2.19 12.92-2.05 3.91 0.06 7.71-0.96 11.55-1.57 4.18-0.99 8.54 0.06 12.72-0.92z" fill="#FFCD17" p-id="16005"></path><path d="M577.09 134.27c4.42-0.2 8.48-2.33 12.92-2.25 4.67-0.19 9.34-0.16 14.01 0.12 42.14 6.6 82.44 22.96 118.94 44.88 6.53 3.68 12.57 8.19 18.86 12.27 29.78 20.18 55.71 45.55 79.01 72.82 16.07 20.12 31.24 41.15 42.83 64.22 12.97 23.97 22.62 49.59 30.38 75.67 4.09 15.19 8.03 30.43 10.5 45.98 2.09 5.04 0.52 10.64 2.44 15.7 1.75 4.96 0.27 10.29 1.28 15.37 2.81 13.82 1.18 27.97 1.61 41.96 0.38 8.07-0.5 16.09-1.61 24.07-0.83 4.95 0.16 10.06-1.21 14.94-1.52 5.46-0.74 11.24-2.47 16.65-3.43 24.44-10.3 48.23-18.4 71.49-5.1 13.56-10.34 27.09-17.02 39.96-2.54 4.83-4.56 9.95-7.62 14.49-0.13 0.48-0.41 1.43-0.55 1.9-6.09 9.99-12 20.1-18.99 29.49-3.52 4.63-6.44 9.96-11.48 13.13-1.25-1.06-3.88-1.85-3.04-3.92 1.26-3.55 2.92-6.95 4.16-10.5 0.47-1.38 0.92-2.77 1.42-4.13 0.35-1.03 0.72-2.05 1.11-3.06 0.12-0.44 0.34-1.32 0.45-1.75 1.02-2.66 1.69-5.41 2.42-8.14 3.34-9.94 5.57-20.2 8.1-30.35 0.89-4.73 2.14-9.39 3.09-14.1 0.07-5.14 1.51-10.1 2.08-15.18 0.17-4.34 1.23-8.57 1.95-12.83 0.52-6.3-0.3-12.64 0.39-18.92 1.15-4.32 0.7-8.81 0.78-13.22-0.01-3.59 0.25-7.23-0.68-10.74-0.85-5.76 0.09-11.62-0.45-17.41-0.76-4.64-1.97-9.23-1.93-13.96-2.92-19.53-8.22-38.62-14.19-57.41-0.48-0.7-0.95-1.38-1.4-2.06-1.48-6.26-4.64-11.95-6.8-17.99-0.72-1.31-1.39-2.63-2.04-3.96a331.91 331.91 0 0 1-4-8.01c-0.7-1.33-1.36-2.66-1.99-4-8.77-17.16-19.29-33.38-30.96-48.69-4.58-5.96-9.13-12-14.4-17.38-4.04-5.89-10.14-9.93-14.22-15.78-2.63-3.07-5.49-5.97-8.65-8.5-5-3.6-8.55-8.83-13.66-12.31-3.45-3.22-6.89-6.46-10.84-9.09-15.51-13.16-32.46-24.5-49.49-35.59-5.71-3.31-11.61-6.29-17.03-10.05-1.4-0.61-2.77-1.27-4.13-1.94-1.34-0.65-2.66-1.33-3.98-2-6.54-3.61-13.25-6.92-20.05-10-1.34-0.65-2.66-1.32-3.96-2.01-1.37-0.65-2.72-1.32-4.06-2.01-1.35-0.65-2.67-1.33-3.97-2.03-7.23-3.58-14.87-6.23-22.02-9.98-7.21-3.61-14.86-6.25-22.02-9.96-1.37-0.65-2.71-1.33-4.04-2.01a98.24 98.24 0 0 1-3.97-2.01c-2.74-1.27-5.46-2.6-8.05-4.15-0.47-0.13-1.42-0.4-1.89-0.54-5.62-4.76-12.19-8.38-17.16-13.89-5.3-5.8-10.16-12.11-13.3-19.37-5.08-8.9-6.09-19.25-6.95-29.24 0.07-4.37 1.33-8.63 1.17-13.02 3.26-15.49 10.39-30.63 22.09-41.55 8.67-9.32 20.73-14.52 32.68-18.12z" fill="#40C33C" p-id="16006"></path><path d="M490.08 344.4c5.04-0.05 9.94-1.21 14.88-2.13 8.67-0.3 17.36 0.02 26.03-0.14 5.4-0.19 10.59 1.64 15.95 1.98 4.14 0.14 7.96 2.06 12.12 2.23 8.95 2.97 18.16 5.54 26.49 10.12 5.17 3.45 10.43 6.81 15.51 10.4 11.58 10.38 21.15 22.97 28.14 36.85 4.28 10.15 7.81 20.61 10.49 31.28 0.22 4.75 2.34 9.2 2.17 13.98-0.16 4.78 1.92 9.29 1.97 14.05 0.05 6.34-0.13 12.67-0.08 19-0.22 2.24 1.29 4.01 2.44 5.77 4.48 6.11 7.63 13.02 11.37 19.58 8.06 17.24 15.59 34.9 19.75 53.52 1.52 5.06 0.61 10.4 0.92 15.6-1.68 1.69-3.62 3.43-6.1 3.66-9.94-0.29-19.67-4.51-26.6-11.67-1.74-1.86-3.55-3.65-5.56-5.2-4.42 3.31-5.35 9.04-7.98 13.58-3.98 8.77-9.48 16.72-13.61 25.41 3.38 4.08 9.16 4.25 13.44 7 6.36 3.13 10.57 8.97 14.3 14.76 0.49 4.52-0.09 9.29-3.25 12.8-6.31 6.53-15.2 9.56-23.8 11.74-8.31 2.5-16.9 3.65-25.51 4.51-10.46 1.79-21.11 0.55-31.54-0.81-7.55-0.95-15.06-2.39-22.16-5.16-8.35-2.65-16.82-6.96-25.81-5.08-8.39 2.43-16.19 6.65-24.79 8.36-6.09 1.59-12.39 2.01-18.55 3.27-6.21 0.5-12.47 0.05-18.7 0.24-5.76 0.27-11.23-2.04-16.97-2.13-9.75-1.9-19.6-4.08-28.67-8.25-4.83-3.26-10.08-7-11.66-12.94-1.8-2.9-0.01-6 1.19-8.72 4.04-8.35 12.41-13.82 21.22-16.01 1.99-0.4 3.16-2.16 4.45-3.55-0.8-2.44-1.57-4.91-2.88-7.14-5.03-8.44-9.73-17.09-13.94-25.98-1.01-1.92-1.84-4.04-3.47-5.52-3.08-0.89-4.86 2.06-6.83 3.81-6.56 6.35-14.92 11.94-24.41 11.73-2.88 0.16-6.95-0.18-8.16-3.27-0.12-4.99 2.04-9.72 2.18-14.71 4.89-22.58 13.19-44.51 24.54-64.67 2.12-3.76 5.2-6.88 7.25-10.66 1.57-2.76 0.57-5.88 0.43-8.82-0.46-5.37 1.05-10.61 1.23-15.95 1.44-5.52-0.32-11.43 1.99-16.76 1.52-11.02 4.49-21.91 8.56-32.32 3.42-10.09 9.19-19.14 15.16-27.88 3.41-4.15 6.31-8.88 10.74-12.05 4.15-3.18 7.62-7.19 12.04-10.05 5.41-3.9 11.67-6.3 17.52-9.46 4.19-2.36 8.95-3.31 13.45-4.95 4.15-1.9 8.86-1.59 13.11-3.25z" fill="#3E97DA" p-id="16007"></path><path d="M736.13 662.09c5.61-1.92 11.23 0.54 16.93 0.26 11.34 2.26 22.63 6.51 31.52 14.12 4.29 2.72 7.14 7.04 10.96 10.3 3.43 4.77 7.11 9.4 9.96 14.56 3.65 7.28 6.03 15.11 8.08 22.97 0.57 5.22 0.08 10.49 0.27 15.74 0.64 10.41-3.16 20.39-6.95 29.9-2.12 3.52-3.75 7.37-6.41 10.54-5.88 7.11-12.96 13.09-19.25 19.82-4.97 6.28-11.66 10.87-17.29 16.53-6.49 5.21-12.46 11.08-19.37 15.77-9.01 7.19-18.96 13.08-28.46 19.59-12.76 6.93-25.08 14.69-38.51 20.32-18.26 9.05-37.6 15.71-57.22 21.09-14.77 4.81-30.09 7.53-45.34 10.35-4.97 1.61-10.32 0.24-15.3 1.8-5.14 1.74-10.65 0.69-15.89 1.86-5.62 0.34-11.25 0.48-16.84 1.2-14.3 0.14-28.64 0.34-42.88-1.2-5.29-1.18-10.84-0.12-16.02-1.89-5.03-1.63-10.55 0.14-15.4-2.21-25.8-3.75-51.05-10.85-75.63-19.53-18.02-6.7-35.77-14.25-52.65-23.49-4.56-3.27-9.87-5.23-14.59-8.22-20.02-11.77-38.72-25.64-56.26-40.82-4.99-3.7-8.82-8.67-13.59-12.62-4.8-3.79-9.15-8.1-12.82-12.99-11.05-10.74-20.57-22.91-29.94-35.08-13.33-17.93-25.38-36.85-35.12-56.96-2.25-4.8-5.1-9.33-6.72-14.39-0.37-0.42-1.11-1.26-1.48-1.67-0.54-2.23-1.05-4.47-1.34-6.73 0.74-1.01 1.48-2 2.21-3 4.41 1.84 6.2 6.55 9.67 9.54 3.6 5.34 9.06 9.03 12.63 14.39 4.2 4.4 8.53 8.71 12.92 12.93 6.31 4.69 11.12 11.06 17.56 15.58 4.14 2.84 7.28 6.89 11.64 9.43 15.91 12.27 32.59 23.71 50.68 32.55 6 4.18 13.1 6.18 19.51 9.55 6.61 2.89 13.53 5.09 20.07 8.08 8.07 1.35 15.41 5.6 23.6 6.51 4.83 1.58 9.87 2.33 14.77 3.67 4.52-0.02 8.68 2.09 13.18 2.17 4 0.21 7.89 1.23 11.84 1.85 4.03 0.42 8.14-0.34 12.12 0.61 3.62 0.94 7.39 0.23 11.07 0.66 5.91 1.32 12.03 0.93 18.03 0.7 4.91-1.39 10.02-0.53 15.02-1 3.22-0.81 6.52-0.98 9.83-0.84 5.8 0.3 11.32-2.09 17.11-2.01 4.14 0.18 7.78-2.47 11.96-2.05 8.78-1.38 17.33-3.84 25.93-5.94 12.12-2.5 23.71-7.02 35.48-10.77 7.39-3 14.92-5.64 22.19-8.92 16.33-6.13 31.81-14.28 46.88-23.01 6.12-3.41 12.21-6.84 17.96-10.86 6.38-3.12 11.92-7.6 17.87-11.44 5.29-4.49 11.41-7.84 16.95-12 5.18-2.67 9.16-7.01 14.17-9.94 9.58-6.73 19.05-13.64 28.58-20.43 5.19-2.64 9.86-6.2 15.2-8.54 8.53-3.61 17.54-6.68 26.92-6.39z" fill="#F02325" p-id="16008"></path></svg>